<svg version="1.1" id="Слой_1" xmlns="http://www.w3.org/2000/svg" xmlns:xlink="http://www.w3.org/1999/xlink" x="0px" y="0px" viewBox="0 0 96 96" style="enable-background:new 0 0 96 96;" xml:space="preserve">
<g>
	<path d="M87.6,86.5C87.6,86.5,87.6,86.5,87.6,86.5c0.2-0.2,0.3-0.5,0.3-0.7l-0.6-5.5c0-0.5-0.4-0.8-0.9-0.8c0,0,0,0,0,0
		c0,0-0.1,0-0.1,0l-5.4,0.6v-5.7c0-0.5-0.4-0.9-0.9-0.9h-8.2c-0.5,0-0.9,0.4-0.9,0.9v5.5l-60.3-6.4c-0.5-0.1-0.9,0.3-1,0.8l-0.6,5.5
		c-0.1,0.5,0.3,0.9,0.8,1l32.7,3.5L9.7,87.7c-0.5,0.1-0.9,0.5-0.8,1l0.6,5.5c0.1,0.5,0.5,0.9,1,0.8l60.3-6.4v5.1
		c0,0.5,0.4,0.9,0.9,0.9H80c0.5,0,0.9-0.4,0.9-0.9v-5.3l5.4,0.6c0.2,0,0.5,0,0.7-0.2c0.2-0.1,0.3-0.4,0.3-0.6l0.5,0l-0.5-0.1
		l0.2-1.5L87.6,86.5z M72.6,75.3h6.4v5L72.6,81V75.3z M10.8,79l0.4-3.7l57.1,6.1l-17.4,1.9L10.8,79z M79.1,92.7h-6.4v-4.4l4.3-0.5
		l0.1,0c0.1,0,0.1,0,0.1,0l1.9,0.2V92.7z M11.2,93.1l-0.4-3.7L51,85.1l0,0c0.1,0,0.3,0,0.4,0l0.1,0l34.1-3.6l0.4,3.7L11.2,93.1z"></path>
	<path d="M83.6,1H12.4C5.6,1,0,6.6,0,13.4v44.5c0,6.8,5.5,12.3,12.4,12.4h71.3c6.8,0,12.3-5.5,12.4-12.4V13.4C96,6.6,90.5,1,83.6,1z
		 M93.9,57.9c0,5.7-4.6,10.3-10.3,10.3H12.4c-5.7,0-10.3-4.6-10.3-10.3V13.4c0-5.7,4.6-10.3,10.3-10.3h71.3
		c5.7,0,10.3,4.6,10.3,10.3V57.9z"></path>
	<path d="M43.3,7.1H12.4C8.9,7.1,6,9.9,6,13.4v44.5c0,3.5,2.8,6.3,6.3,6.3h30.9c0.6,0,1-0.5,1-1V8.1C44.3,7.5,43.9,7.1,43.3,7.1z
		 M42.2,62.1H12.4c-2.3,0-4.2-1.9-4.2-4.2V13.4c0-2.3,1.9-4.2,4.2-4.2h29.9V62.1z"></path>
	<path d="M83.6,7.1H48.9c-0.6,0-1,0.5-1,1v23.2c0,0.6,0.5,1,1,1h40c0.6,0,1-0.5,1-1V13.4C90,9.9,87.1,7.1,83.6,7.1z M87.9,30.3H50
		V9.1l33.7,0c2.3,0,4.2,1.9,4.2,4.2L87.9,30.3z"></path>
	<path d="M88.9,36.3h-40c-0.6,0-1,0.5-1,1v25.8c0,0.6,0.5,1,1,1h34.7c3.5,0,6.3-2.8,6.3-6.3V37.3C90,36.8,89.5,36.3,88.9,36.3z
		 M61.4,38.4h1.7c-0.2,7.2-6,13-13.1,13.2v-1.7C56.2,49.6,61.2,44.6,61.4,38.4z M50,48.2v-1.7c4.4-0.2,7.9-3.7,8.1-8.1h1.7
		C59.5,43.7,55.3,48,50,48.2z M56.3,38.4c-0.2,3.4-2.9,6.2-6.4,6.4v-6.4H56.3z M50,53.2c8.1-0.2,14.6-6.8,14.8-14.9h23.1l0,6.9
		c-5.1-0.6-10.1,1.3-13.5,5.2l1.3,1.2c3.1-3.5,7.7-5.2,12.2-4.6l0,4c-6.2,0-11.2,5-11.3,11.2h-1.8c0-4.6,2.6-8.9,6.6-11l-0.7-1.4
		c-4.6,2.4-7.5,7.2-7.5,12.4H50V53.2z M87.9,52.6l0,1.8c-4.3,0-7.8,3.5-7.8,7.8h-1.8C78.3,56.9,82.6,52.6,87.9,52.6z M83.6,62.1h-2
		c0-3.4,2.8-6.2,6.3-6.2l0,2C87.9,60.2,86,62.1,83.6,62.1z"></path>
	<path d="M71.2,12.5h-2.5c-2.1,0-3.8,1.7-3.8,3.8v7.2c0,2.1,1.7,3.8,3.8,3.8h2.5c2.1,0,3.8-1.7,3.8-3.8v-7.2
		C75,14.2,73.3,12.5,71.2,12.5z M66.7,16.3c0-1.1,0.9-2,2-2h2.5c0.6,0,1.1,0.3,1.5,0.7l0.4,0.4l-6.4,2.2V16.3z M73.2,23.5
		c0,1.1-0.9,2-2,2h-2.5c-0.6,0-1.1-0.3-1.5-0.7l-0.4-0.4l6.4-2.2V23.5z M73.2,20.3l-6.5,2.2l0-3.1l6.5-2.2V20.3z"></path>
	<path d="M59.1,12.5h-2.5c-2.1,0-3.8,1.7-3.8,3.8v7.2c0,2.1,1.7,3.8,3.8,3.8h2.5c2.1,0,3.8-1.7,3.8-3.8v-7.2
		C62.8,14.2,61.1,12.5,59.1,12.5z M54.6,16.3c0-1.1,0.9-2,2-2h2.5c0.6,0,1.1,0.3,1.5,0.7l0.4,0.4l-6.4,2.2V16.3z M61.1,23.5
		c0,1.1-0.9,2-2,2h-2.5c-0.6,0-1.1-0.3-1.5-0.7l-0.4-0.4l6.4-2.2V23.5z M61.1,20.3l-6.5,2.2l0-3.1l6.5-2.2V20.3z"></path>
	<path d="M83.3,12.5h-2.5c-2.1,0-3.8,1.7-3.8,3.8v7.2c0,2.1,1.7,3.8,3.8,3.8h2.5c2.1,0,3.8-1.7,3.8-3.8v-7.2
		C87,14.2,85.3,12.5,83.3,12.5z M78.8,16.3c0-1.1,0.9-2,2-2h2.5c0.6,0,1.1,0.3,1.5,0.7l0.4,0.4l-6.4,2.2V16.3z M85.3,23.5
		c0,1.1-0.9,2-2,2h-2.5c-0.6,0-1.1-0.3-1.5-0.7l-0.4-0.4l6.4-2.2V23.5z M85.3,20.3l-6.5,2.2l0-3.1l6.5-2.2V20.3z"></path>
	<circle cx="82.6" cy="41.2" r="1.1"></circle>
	<path d="M69.2,45.5c0.6,0.2,1.2-0.2,1.3-0.7c0.2-0.6-0.2-1.2-0.7-1.3c-0.6-0.2-1.2,0.2-1.3,0.7C68.3,44.7,68.6,45.3,69.2,45.5z"></path>
	<path d="M53.5,58.4c-0.6-0.2-1.2,0.2-1.3,0.7c-0.2,0.6,0.2,1.2,0.7,1.3c0.6,0.2,1.2-0.2,1.3-0.7C54.4,59.2,54,58.6,53.5,58.4z"></path>
	<circle cx="18.6" cy="16.9" r="1.7"></circle>
	<circle cx="31.7" cy="16.9" r="1.7"></circle>
	<circle cx="18.6" cy="29.6" r="1.7"></circle>
	<circle cx="31.7" cy="29.6" r="1.7"></circle>
	<path d="M18.6,22.9c3.3,0,5.9-2.7,5.9-5.9c0-3.3-2.7-5.9-5.9-5.9c-3.3,0-5.9,2.7-5.9,5.9S15.3,22.9,18.6,22.9z M18.6,12.9
		c2.2,0,4,1.8,4,4c0,2.2-1.8,4-4,4h0c-2.2,0-4-1.8-4-4C14.6,14.7,16.4,12.9,18.6,12.9z"></path>
	<path d="M31.7,22.9c3.3,0,5.9-2.7,5.9-5.9c0-3.3-2.7-5.9-5.9-5.9c-3.3,0-5.9,2.7-5.9,5.9C25.7,20.2,28.4,22.9,31.7,22.9z
		 M31.7,12.9c2.2,0,4,1.8,4,4c0,2.2-1.8,4-4,4c-2.2,0-4-1.8-4-4C27.7,14.7,29.5,12.9,31.7,12.9z"></path>
	<path d="M18.6,35.5c3.3,0,5.9-2.7,5.9-5.9c0-3.3-2.7-5.9-5.9-5.9c-3.3,0-5.9,2.7-5.9,5.9C12.7,32.9,15.3,35.5,18.6,35.5z
		 M18.6,25.6L18.6,25.6c2.2,0,4,1.8,4,4c0,2.2-1.8,4-4,4c-2.2,0-4-1.8-4-4C14.6,27.4,16.4,25.6,18.6,25.6z"></path>
	<path d="M31.7,35.5c3.3,0,5.9-2.7,5.9-5.9c0-3.3-2.7-5.9-5.9-5.9c-3.3,0-5.9,2.7-5.9,5.9C25.7,32.9,28.4,35.5,31.7,35.5z
		 M31.7,25.6c2.2,0,4,1.8,4,4c0,2.2-1.8,4-4,4c-2.2,0-4-1.8-4-4C27.7,27.4,29.5,25.6,31.7,25.6z"></path>
	<ellipse transform="matrix(0.9871 -0.1602 0.1602 0.9871 -6.5154 3.5588)" cx="18.8" cy="42.2" rx="1.7" ry="1.7"></ellipse>
	<circle cx="31.9" cy="42.2" r="1.7"></circle>
	<ellipse transform="matrix(0.9871 -0.1602 0.1602 0.9871 -8.5448 3.7224)" cx="18.8" cy="54.9" rx="1.7" ry="1.7"></ellipse>
	<circle cx="31.9" cy="54.9" r="1.7"></circle>
	<path d="M18.8,36.3c-3.3,0-5.9,2.7-5.9,5.9c0,3.3,2.7,5.9,5.9,5.9c3.3,0,5.9-2.7,5.9-5.9C24.7,38.9,22.1,36.3,18.8,36.3z
		 M18.8,46.2L18.8,46.2c-2.2,0-4-1.8-4-4c0-2.2,1.8-4,4-4s4,1.8,4,4C22.8,44.4,21,46.2,18.8,46.2z"></path>
	<path d="M31.9,36.3c-3.3,0-5.9,2.7-5.9,5.9c0,3.3,2.7,5.9,5.9,5.9c3.3,0,5.9-2.7,5.9-5.9C37.8,38.9,35.2,36.3,31.9,36.3z
		 M31.9,46.2c-2.2,0-4-1.8-4-4c0-2.2,1.8-4,4-4c2.2,0,4,1.8,4,4C35.9,44.4,34.1,46.2,31.9,46.2z"></path>
	<path d="M18.8,48.9c-3.3,0-5.9,2.7-5.9,5.9c0,3.3,2.7,5.9,5.9,5.9c3.3,0,5.9-2.7,5.9-5.9C24.7,51.6,22.1,48.9,18.8,48.9z
		 M18.8,58.9c-2.2,0-4-1.8-4-4c0-2.2,1.8-4,4-4c2.2,0,4,1.8,4,4S21,58.9,18.8,58.9z"></path>
	<path d="M31.9,48.9c-3.3,0-5.9,2.7-5.9,5.9c0,3.3,2.7,5.9,5.9,5.9c3.3,0,5.9-2.7,5.9-5.9S35.2,48.9,31.9,48.9z M31.9,58.9
		c-2.2,0-4-1.8-4-4c0-2.2,1.8-4,4-4h0c2.2,0,4,1.8,4,4S34.1,58.9,31.9,58.9z"></path>
	<path d="M76.2,45.2c1.6,0,2.9-1.3,2.9-2.9s-1.3-2.9-2.9-2.9s-2.9,1.3-2.9,2.9S74.6,45.2,76.2,45.2z M76.2,40.9
		c0.8,0,1.5,0.7,1.5,1.5c0,0.8-0.7,1.5-1.5,1.5c-0.8,0-1.5-0.7-1.5-1.5C74.8,41.5,75.4,40.9,76.2,40.9z"></path>
	<path d="M71.7,47.8h-6c-2.1,0-3.8,1.7-3.8,3.8v2.3h-4.5c-0.4,0-0.8,0.3-0.8,0.8v3c0,2.1,1.7,3.8,3.8,3.8h6c0.4,0,0.8-0.3,0.8-0.8
		v-3c0-0.8-0.3-1.6-0.8-2.3h2.3c2.1,0,3.8-1.7,3.8-3.8v-3C72.4,48.1,72.1,47.8,71.7,47.8z M65.6,59.8h-5.3c-1.2,0-2.3-1-2.3-2.3
		v-2.3h1.5v2.3h1.5v-2.3h1.5v2.3h1.5v-2.1c0.9,0.3,1.5,1.2,1.5,2.1V59.8z M70.9,51.5c0,1.2-1,2.3-2.3,2.3h-5.3v-2.3
		c0-1,0.6-1.8,1.5-2.1v2.1h1.5v-2.3h1.5v2.3h1.5v-2.3h1.5V51.5z"></path>
</g>
</svg>